HIERARCHY
ROOT Hips
{
	OFFSET 0.000000 71.427986 0.000000
	CHANNELS 6 Xposition Yposition Zposition Xrotation Yrotation Zrotation
	JOINT Pelvis
	{
		OFFSET 0.000000 0.000000 0.000000
		CHANNELS 3 Xrotation Yrotation Zrotation
		JOINT LeftUpLeg
		{
			OFFSET 6.797100 -2.508499 -1.318700
			CHANNELS 3 Xrotation Yrotation Zrotation
			JOINT LeftLeg
			{
				OFFSET 0.069008 -29.241863 0.690200
				CHANNELS 3 Xrotation Yrotation Zrotation
				JOINT LeftFoot
				{
					OFFSET -0.069008 -29.568123 -0.266800
					CHANNELS 3 Xrotation Yrotation Zrotation
					JOINT LeftToeBase
					{
						OFFSET 3.145500 -8.631000 16.059900
						CHANNELS 3 Xrotation Yrotation Zrotation
						End Site
						{
							OFFSET 0.000000 18.501587 0.000000
						}
					}
				}
			}
			JOINT Left_ShortSleeve
			{
				OFFSET 0.265923 -10.480953 1.153800
				CHANNELS 3 Xrotation Yrotation Zrotation
				End Site
				{
					OFFSET 1.725763 19.823879 0.000000
				}
			}
		}
		JOINT RightUpLeg
		{
			OFFSET -6.797100 -2.508499 -1.318700
			CHANNELS 3 Xrotation Yrotation Zrotation
			JOINT RightLeg
			{
				OFFSET -0.082453 -29.241932 0.688000
				CHANNELS 3 Xrotation Yrotation Zrotation
				JOINT RightFoot
				{
					OFFSET 0.082453 -29.568058 -0.264600
					CHANNELS 3 Xrotation Yrotation Zrotation
					JOINT RightToeBase
					{
						OFFSET -3.115300 -8.682800 16.113400
						CHANNELS 3 Xrotation Yrotation Zrotation
						End Site
						{
							OFFSET 0.000000 18.567114 0.000000
						}
					}
				}
			}
			JOINT Right_ShortSleeve
			{
				OFFSET -0.265923 -10.480953 1.153800
				CHANNELS 3 Xrotation Yrotation Zrotation
				End Site
				{
					OFFSET -1.725766 19.823910 0.000000
				}
			}
		}
	}
	JOINT Spine
	{
		OFFSET 0.000000 13.368103 0.470500
		CHANNELS 3 Xrotation Yrotation Zrotation
		JOINT Spine1
		{
			OFFSET 0.147000 13.837402 0.538800
			CHANNELS 3 Xrotation Yrotation Zrotation
			JOINT Spine2
			{
				OFFSET 0.168000 16.242897 -1.435500
				CHANNELS 3 Xrotation Yrotation Zrotation
				JOINT Neck
				{
					OFFSET 0.217200 18.631500 -1.679100
					CHANNELS 3 Xrotation Yrotation Zrotation
					JOINT Head
					{
						OFFSET 0.000000 6.599396 1.385900
						CHANNELS 3 Xrotation Yrotation Zrotation
						JOINT Hat
						{
							OFFSET -0.532200 27.220596 -10.096100
							CHANNELS 3 Xrotation Yrotation Zrotation
							End Site
							{
								OFFSET 0.000000 22.029861 0.000000
							}
						}
						JOINT HairD
						{
							OFFSET -10.777400 17.437393 -1.325900
							CHANNELS 3 Xrotation Yrotation Zrotation
							JOINT HairD1
							{
								OFFSET -3.290299 -11.051193 1.062200
								CHANNELS 3 Xrotation Yrotation Zrotation
								End Site
								{
									OFFSET 0.000000 11.579437 0.000000
								}
							}
						}
						JOINT HairB
						{
							OFFSET -10.777400 17.437393 1.467900
							CHANNELS 3 Xrotation Yrotation Zrotation
							JOINT HairB1
							{
								OFFSET -1.561200 -12.956299 3.590200
								CHANNELS 3 Xrotation Yrotation Zrotation
								End Site
								{
									OFFSET 0.000000 13.534866 0.000000
								}
							}
						}
						JOINT HairA
						{
							OFFSET 9.713100 17.437393 1.467900
							CHANNELS 3 Xrotation Yrotation Zrotation
							JOINT HairA1
							{
								OFFSET 1.561200 -12.956299 3.590200
								CHANNELS 3 Xrotation Yrotation Zrotation
								End Site
								{
									OFFSET 0.000000 13.534866 0.000000
								}
							}
						}
						JOINT HairC
						{
							OFFSET 9.713100 17.437393 -1.325900
							CHANNELS 3 Xrotation Yrotation Zrotation
							JOINT HairC1
							{
								OFFSET 3.290300 -11.051193 1.062200
								CHANNELS 3 Xrotation Yrotation Zrotation
								End Site
								{
									OFFSET 0.000000 11.579437 0.000000
								}
							}
						}
					}
				}
				JOINT LeftShoulder
				{
					OFFSET 5.101800 15.108002 -2.763700
					CHANNELS 3 Xrotation Yrotation Zrotation
					JOINT LeftArm
					{
						OFFSET 9.825497 2.506317 -1.597400
						CHANNELS 3 Xrotation Yrotation Zrotation
						JOINT LeftForeArm
						{
							OFFSET 21.966244 0.000000 0.000000
							CHANNELS 3 Xrotation Yrotation Zrotation
							JOINT LeftHand
							{
								OFFSET 33.879036 0.000000 0.000000
								CHANNELS 3 Xrotation Yrotation Zrotation
								JOINT LeftHandThumb1
								{
									OFFSET 6.715286 -2.359680 3.363841
									CHANNELS 3 Xrotation Yrotation Zrotation
									JOINT LeftHandThumb2
									{
										OFFSET 2.507072 -1.447464 1.447461
										CHANNELS 3 Xrotation Yrotation Zrotation
										JOINT LeftHandThumb3
										{
											OFFSET 2.898338 -1.673355 1.673357
											CHANNELS 3 Xrotation Yrotation Zrotation
											End Site
											{
												OFFSET -0.295959 3.727692 -0.131651
											}
										}
									}
								}
								JOINT LeftHandIndex1
								{
									OFFSET 14.190811 -0.254547 3.840278
									CHANNELS 3 Xrotation Yrotation Zrotation
									JOINT LeftHandIndex2
									{
										OFFSET 3.551727 0.000000 -0.000000
										CHANNELS 3 Xrotation Yrotation Zrotation
										JOINT LeftHandIndex3
										{
											OFFSET 2.894196 0.000000 0.000000
											CHANNELS 3 Xrotation Yrotation Zrotation
											End Site
											{
												OFFSET -1.000603 2.690872 0.366626
											}
										}
									}
								}
								JOINT LeftHandMiddle1
								{
									OFFSET 13.776489 0.000000 0.000000
									CHANNELS 3 Xrotation Yrotation Zrotation
									JOINT LeftHandMiddle2
									{
										OFFSET 3.438232 0.000000 0.000000
										CHANNELS 3 Xrotation Yrotation Zrotation
										JOINT LeftHandMiddle3
										{
											OFFSET 3.691551 0.000000 0.000000
											CHANNELS 3 Xrotation Yrotation Zrotation
											End Site
											{
												OFFSET -1.082298 3.499527 0.457670
											}
										}
									}
								}
								JOINT LeftHandRing1
								{
									OFFSET 13.966164 -0.268127 -3.067488
									CHANNELS 3 Xrotation Yrotation Zrotation
									JOINT LeftHandRing2
									{
										OFFSET 3.162567 0.000000 0.000000
										CHANNELS 3 Xrotation Yrotation Zrotation
										JOINT LeftHandRing3
										{
											OFFSET 3.324348 0.000000 0.000000
											CHANNELS 3 Xrotation Yrotation Zrotation
											End Site
											{
												OFFSET -0.861900 3.184998 0.405154
											}
										}
									}
								}
								JOINT LeftHandPinky1
								{
									OFFSET 13.131393 -0.168503 -5.746925
									CHANNELS 3 Xrotation Yrotation Zrotation
									JOINT LeftHandPinky2
									{
										OFFSET 2.849182 0.000000 0.000000
										CHANNELS 3 Xrotation Yrotation Zrotation
										JOINT LeftHandPinky3
										{
											OFFSET 2.805038 0.000000 0.000000
											CHANNELS 3 Xrotation Yrotation Zrotation
											End Site
											{
												OFFSET -0.882500 2.642609 0.325652
											}
										}
									}
								}
							}
							JOINT Left_Sleeve
							{
								OFFSET 6.592125 -0.646545 0.805568
								CHANNELS 3 Xrotation Yrotation Zrotation
								End Site
								{
									OFFSET -0.000179 20.275787 -0.000000
								}
							}
						}
					}
				}
				JOINT RightShoulder
				{
					OFFSET -5.731700 15.108002 -2.763700
					CHANNELS 3 Xrotation Yrotation Zrotation
					JOINT RightArm
					{
						OFFSET -9.825497 2.506317 -1.597400
						CHANNELS 3 Xrotation Yrotation Zrotation
						JOINT RightForeArm
						{
							OFFSET -21.966242 0.000000 0.000000
							CHANNELS 3 Xrotation Yrotation Zrotation
							JOINT RightHand
							{
								OFFSET -33.879032 0.000000 0.000000
								CHANNELS 3 Xrotation Yrotation Zrotation
								JOINT RightHandThumb1
								{
									OFFSET -6.715286 -2.359680 3.363841
									CHANNELS 3 Xrotation Yrotation Zrotation
									JOINT RightHandThumb2
									{
										OFFSET -2.507072 -1.447464 1.447461
										CHANNELS 3 Xrotation Yrotation Zrotation
										JOINT RightHandThumb3
										{
											OFFSET -2.898338 -1.673355 1.673357
											CHANNELS 3 Xrotation Yrotation Zrotation
											End Site
											{
												OFFSET 0.295959 3.727692 -0.131651
											}
										}
									}
								}
								JOINT RightHandIndex1
								{
									OFFSET -14.190811 -0.254547 3.840278
									CHANNELS 3 Xrotation Yrotation Zrotation
									JOINT RightHandIndex2
									{
										OFFSET -3.551727 0.000000 -0.000000
										CHANNELS 3 Xrotation Yrotation Zrotation
										JOINT RightHandIndex3
										{
											OFFSET -2.894196 0.000000 0.000000
											CHANNELS 3 Xrotation Yrotation Zrotation
											End Site
											{
												OFFSET 1.000603 2.690872 0.366626
											}
										}
									}
								}
								JOINT RightHandMiddle1
								{
									OFFSET -13.776489 0.000000 0.000000
									CHANNELS 3 Xrotation Yrotation Zrotation
									JOINT RightHandMiddle2
									{
										OFFSET -3.438232 0.000000 0.000000
										CHANNELS 3 Xrotation Yrotation Zrotation
										JOINT RightHandMiddle3
										{
											OFFSET -3.691551 0.000000 0.000000
											CHANNELS 3 Xrotation Yrotation Zrotation
											End Site
											{
												OFFSET 1.082298 3.499527 0.457670
											}
										}
									}
								}
								JOINT RightHandRing1
								{
									OFFSET -13.966164 -0.268127 -3.067488
									CHANNELS 3 Xrotation Yrotation Zrotation
									JOINT RightHandRing2
									{
										OFFSET -3.162567 0.000000 0.000000
										CHANNELS 3 Xrotation Yrotation Zrotation
										JOINT RightHandRing3
										{
											OFFSET -3.324348 0.000000 0.000000
											CHANNELS 3 Xrotation Yrotation Zrotation
											End Site
											{
												OFFSET 0.861900 3.184998 0.405154
											}
										}
									}
								}
								JOINT RightHandPinky1
								{
									OFFSET -13.131393 -0.168503 -5.746925
									CHANNELS 3 Xrotation Yrotation Zrotation
									JOINT RightHandPinky2
									{
										OFFSET -2.849182 0.000000 0.000000
										CHANNELS 3 Xrotation Yrotation Zrotation
										JOINT RightHandPinky3
										{
											OFFSET -2.805038 0.000000 0.000000
											CHANNELS 3 Xrotation Yrotation Zrotation
											End Site
											{
												OFFSET 0.882500 2.642609 0.325652
											}
										}
									}
								}
							}
							JOINT Right_Sleeve
							{
								OFFSET -6.592125 -0.646545 0.805568
								CHANNELS 3 Xrotation Yrotation Zrotation
								End Site
								{
									OFFSET 0.000179 20.275787 -0.000000
								}
							}
						}
					}
				}
				JOINT Bind_Right_JacketString
				{
					OFFSET -3.534800 11.969597 7.200700
					CHANNELS 3 Xrotation Yrotation Zrotation
					JOINT Bind_Right_JacketString1
					{
						OFFSET -0.319900 -6.102600 2.794100
						CHANNELS 3 Xrotation Yrotation Zrotation
						End Site
						{
							OFFSET 0.000000 6.719452 0.000000
						}
					}
				}
				JOINT Bind_Left_JacketString
				{
					OFFSET 2.904800 11.969597 7.200700
					CHANNELS 3 Xrotation Yrotation Zrotation
					JOINT Bind_Left_JacketString1
					{
						OFFSET 0.364800 -5.904503 3.186800
						CHANNELS 3 Xrotation Yrotation Zrotation
						End Site
						{
							OFFSET 0.000000 6.719513 0.000000
						}
					}
				}
				JOINT HairE
				{
					OFFSET 5.915200 17.612701 -11.592200
					CHANNELS 3 Xrotation Yrotation Zrotation
					JOINT HairE1
					{
						OFFSET 0.289200 -7.171898 -1.284500
						CHANNELS 3 Xrotation Yrotation Zrotation
						End Site
						{
							OFFSET 0.000000 7.291756 0.000000
						}
					}
				}
				JOINT HairF
				{
					OFFSET -0.864800 17.612701 -11.592200
					CHANNELS 3 Xrotation Yrotation Zrotation
					JOINT HairF1
					{
						OFFSET 0.000000 -14.087097 -2.127501
						CHANNELS 3 Xrotation Yrotation Zrotation
						End Site
						{
							OFFSET 0.000000 14.246841 0.000000
						}
					}
				}
				JOINT HairG
				{
					OFFSET -8.087700 17.612701 -11.592200
					CHANNELS 3 Xrotation Yrotation Zrotation
					JOINT HairG1
					{
						OFFSET -0.293600 -6.081398 -0.910100
						CHANNELS 3 Xrotation Yrotation Zrotation
						End Site
						{
							OFFSET 0.000000 6.156120 0.000000
						}
					}
				}
			}
		}
	}
	JOINT Pouch
	{
		OFFSET 0.000000 4.394501 10.847300
		CHANNELS 3 Xrotation Yrotation Zrotation
		End Site
		{
			OFFSET 0.000000 21.880577 0.000000
		}
	}
	JOINT Bag
	{
		OFFSET -13.229000 4.813004 -0.593300
		CHANNELS 3 Xrotation Yrotation Zrotation
		End Site
		{
			OFFSET 0.000000 21.880577 0.000000
		}
	}
	JOINT OccupyGuyFacialAnim_Joint
	{
		OFFSET 1.000000 -70.206398 -1.655000
		CHANNELS 3 Xrotation Yrotation Zrotation
		End Site
		{
			OFFSET 0.000000 21.880577 0.000000
		}
	}
}
MOTION
Frames: 5
Frame Time: 0.033333
-1.911407 37.920429 19.951540 29.303964 10.889103 11.032513 -0.000001 -0.000001 -0.000000 -120.318823 14.420433 23.517574 93.955823 -17.285967 -10.428808 -3.014802 -1.520589 12.392553 0.000000 0.000000 -0.000000 -0.000000 -0.000000 0.000003 -66.390012 6.455088 -30.258940 125.125678 -54.171480 1.997528 5.038799 1.781765 -23.830716 -0.000001 -0.000002 0.000001 -0.000004 0.000000 -0.000001 40.566747 -1.502031 2.176577 9.225669 -2.575076 -2.440286 9.206879 -2.577623 -2.334980 -24.219340 -2.488415 -8.100218 -17.069015 -9.566163 1.163228 -0.000002 -0.000000 0.000000 -0.000002 -0.000000 0.000000 -0.000002 -0.000000 0.000000 -0.000002 -0.000000 0.000000 -0.000000 -0.000000 0.000000 -0.000002 -0.000000 0.000000 -0.000000 -0.000000 0.000000 -0.000002 -0.000000 0.000000 -0.000002 -0.000000 0.000000 35.099113 -36.283870 61.286434 -126.080265 44.376248 -36.257974 -0.002612 -35.988082 -7.686732 -0.081403 13.113607 -28.592523 -7.471930 1.860682 -7.166924 30.987025 27.310535 -4.510883 0.000003 0.000001 -0.000002 -4.836320 11.355741 -75.785361 -0.816398 3.073980 -46.874612 0.000001 0.000001 -0.000000 1.623364 16.580954 -84.691286 0.018005 0.022040 -72.884853 0.000001 0.000000 0.000001 -6.436864 23.133400 -89.739827 0.012861 0.975937 -51.002976 0.000000 -0.000001 -0.000002 -17.135729 21.949802 -87.159060 0.002439 -0.098380 -58.097562 0.000001 -0.000003 0.000002 -0.000000 0.000004 0.000001 16.843586 52.110232 -49.763023 -92.301189 -24.164607 40.327824 -0.009349 39.936260 -9.442324 -11.778595 -7.147722 3.483386 9.347166 2.810533 -11.364525 16.169083 -43.265994 15.843571 -0.000000 -0.000001 -0.000000 17.076774 -0.396559 31.924355 -0.204394 -0.284187 112.811591 0.000001 0.000002 -0.000003 9.205477 -5.035911 102.738107 0.014984 -0.019227 61.018499 -0.000000 -0.000001 0.000001 5.569107 -8.935203 107.329087 0.547991 -0.005792 41.263717 -0.000000 0.000000 -0.000004 6.511246 -17.148267 98.228031 0.007423 -0.015751 43.845744 -0.000001 0.000002 0.000001 -0.000000 0.000001 -0.000001 -0.000000 -0.000001 0.000000 -0.000000 -0.000001 -0.000000 -0.000000 -0.000001 0.000000 -0.000000 -0.000001 0.000000 -0.000000 -0.000001 0.000000 -0.000000 -0.000001 -0.000000 -0.000000 -0.000001 0.000000 -0.000000 -0.000001 0.000000 -0.000000 -0.000001 0.000000 -0.000000 -0.000001 -0.000000 -0.000001 -0.000001 -0.000000 -0.000001 -0.000001 -0.000000 -0.000001 -0.000001 -0.000000 
-1.113478 38.653557 20.571640 33.252786 10.492355 12.482075 -0.000000 0.000001 -0.000001 -121.965390 15.774018 24.375695 93.384880 -16.849851 -11.607184 -5.004474 -1.793572 13.199739 0.000000 0.000001 0.000000 0.000000 0.000000 -0.000002 -69.489354 9.232629 -29.900444 122.084427 -52.343182 -0.262740 6.230202 1.248615 -22.379154 -0.000001 -0.000001 -0.000000 0.000001 -0.000000 0.000000 41.953044 -1.903562 3.284938 9.336847 -3.487664 -2.309671 9.322850 -3.449811 -2.202757 -13.817706 -2.881003 -7.667795 -27.145436 -6.888506 2.008980 -0.000001 0.000000 -0.000000 -0.000001 0.000000 -0.000000 -0.000001 0.000000 -0.000000 -0.000001 0.000000 -0.000000 0.000002 -0.000000 0.000000 -0.000001 0.000000 -0.000000 0.000002 -0.000000 0.000000 -0.000001 0.000000 -0.000000 -0.000001 0.000000 -0.000000 32.853797 -41.752362 58.776988 -130.107823 47.470204 -25.382585 0.177193 -44.682507 -16.844327 -1.803386 28.862402 -29.177287 -7.471932 1.860683 -7.166923 30.987025 27.310537 -4.510881 0.000001 -0.000000 -0.000003 -4.836586 11.355605 -75.785040 -0.816398 3.073977 -46.874612 0.000000 -0.000001 -0.000004 1.623363 16.580952 -84.691286 0.018004 0.022041 -72.884853 0.000001 0.000001 -0.000003 -6.436872 23.133402 -89.739847 0.012863 0.975935 -51.002966 -0.000000 0.000002 0.000000 -17.135908 21.949192 -87.159108 0.002500 -0.096560 -58.098047 0.000001 0.000001 0.000003 -0.000001 0.000003 0.000001 13.209430 60.421725 -42.866288 -92.322028 -20.161817 36.707438 0.029990 45.842249 -7.623365 -5.076593 -22.343524 -3.770361 9.347169 2.810532 -11.364526 16.169083 -43.265994 15.843571 -0.000001 -0.000001 0.000000 17.076776 -0.396560 31.924352 -0.204392 -0.284188 112.811591 -0.000002 0.000003 0.000004 9.205481 -5.035905 102.738107 0.014978 -0.019226 61.018499 -0.000000 -0.000002 -0.000001 5.569107 -8.935205 107.329087 0.547984 -0.005788 41.263720 -0.000002 0.000001 0.000004 6.511247 -17.148267 98.228024 0.007424 -0.015751 43.845744 -0.000001 0.000000 0.000001 -0.000000 0.000000 0.000000 -0.000000 0.000001 -0.000000 -0.000000 0.000000 -0.000000 -0.000000 0.000001 -0.000000 -0.000000 0.000001 -0.000000 -0.000000 0.000001 -0.000000 -0.000000 0.000000 -0.000000 -0.000000 0.000001 -0.000000 -0.000000 0.000001 -0.000000 -0.000000 0.000001 -0.000000 -0.000000 0.000000 -0.000000 -0.000000 0.000001 -0.000001 -0.000000 0.000001 -0.000001 -0.000000 0.000001 -0.000001 
-0.556360 39.500179 21.440439 36.925031 10.288400 13.249785 0.000000 -0.000001 -0.000001 -123.116045 16.552029 25.033837 92.779152 -16.848434 -12.649971 -7.075047 -2.109613 13.823440 0.000000 -0.000001 -0.000000 0.000000 0.000000 0.000001 -71.563676 10.813530 -29.581443 119.920910 -51.706209 -1.276919 5.493642 1.292386 -19.242098 -0.000001 0.000001 0.000001 0.000001 0.000001 -0.000000 42.678437 -2.211497 3.799148 9.241887 -3.613581 -2.045221 9.241622 -3.588728 -1.861883 -1.634797 -0.943527 -3.725863 -35.386544 -5.105282 -0.509079 -0.000001 -0.000000 -0.000000 -0.000001 -0.000000 -0.000000 -0.000001 -0.000000 -0.000000 -0.000001 -0.000000 -0.000000 -0.000001 0.000000 -0.000000 -0.000001 -0.000000 -0.000000 -0.000001 0.000000 -0.000000 -0.000001 -0.000000 -0.000000 -0.000001 -0.000000 -0.000000 34.685712 -43.409045 59.259589 -137.324464 50.716101 -14.478157 0.086779 -56.948400 -29.144882 -12.313182 30.565250 -20.572000 -7.471930 1.860684 -7.166923 30.987025 27.310537 -4.510882 0.000001 0.000002 -0.000002 -4.836851 11.355488 -75.784671 -0.816396 3.073977 -46.874615 0.000001 -0.000001 -0.000002 1.623364 16.580954 -84.691286 0.018004 0.022039 -72.884860 0.000001 0.000001 0.000001 -6.436879 23.133403 -89.739827 0.012860 0.975934 -51.002969 -0.000000 0.000000 -0.000002 -17.136082 21.948634 -87.159142 0.002568 -0.094686 -58.098566 0.000001 0.000001 0.000003 -0.000001 -0.000002 -0.000001 9.786106 61.907250 -36.083445 -90.871767 -16.842330 36.798269 0.029447 56.303117 -3.939721 1.157332 -29.206876 -2.232646 9.347168 2.810534 -11.364526 16.169083 -43.265994 15.843573 0.000000 0.000000 -0.000000 17.076772 -0.396559 31.924349 -0.204396 -0.284184 112.811591 -0.000002 0.000001 0.000000 9.205478 -5.035907 102.738107 0.014983 -0.019227 61.018499 0.000001 0.000000 0.000001 5.569106 -8.935202 107.329087 0.547984 -0.005787 41.263720 0.000002 -0.000001 -0.000000 6.511246 -17.148261 98.228031 0.007425 -0.015753 43.845747 -0.000000 -0.000000 0.000004 -0.000000 -0.000001 -0.000002 -0.000000 0.000001 -0.000000 -0.000000 -0.000000 -0.000000 -0.000000 0.000001 -0.000000 -0.000000 0.000001 -0.000000 -0.000000 0.000001 -0.000000 -0.000000 -0.000000 -0.000000 -0.000000 0.000001 -0.000000 -0.000000 0.000001 -0.000000 -0.000000 0.000001 -0.000000 -0.000000 -0.000000 -0.000000 0.000000 -0.000001 -0.000001 0.000000 -0.000001 -0.000001 0.000000 -0.000001 -0.000001 
-0.339873 39.998318 22.412708 40.106406 10.900069 13.315100 -0.000000 -0.000001 -0.000001 -124.422660 17.002571 25.297325 92.592353 -17.403645 -13.411095 -8.775943 -2.403838 14.236258 -0.000000 -0.000001 -0.000000 0.000001 -0.000000 -0.000001 -72.704796 10.950669 -30.530946 119.273531 -51.534583 -0.728562 3.406713 1.660949 -16.222859 0.000000 -0.000001 0.000001 0.000001 0.000000 0.000001 42.472637 -1.879497 4.458950 9.234077 -3.387977 -1.910783 9.263163 -3.325546 -1.682400 6.436587 -0.140669 1.038588 -39.010052 -2.427495 -2.555266 -0.000002 0.000000 0.000000 -0.000002 0.000000 0.000000 -0.000002 0.000000 0.000000 -0.000002 0.000000 0.000000 -0.000002 -0.000000 -0.000000 -0.000002 0.000000 0.000000 -0.000002 -0.000000 -0.000000 -0.000002 0.000000 0.000000 -0.000002 0.000000 0.000000 34.134984 -44.847391 60.328261 -141.006455 54.304129 -8.648911 0.006255 -64.578776 -34.342321 -16.142372 29.860354 -16.791754 -7.471932 1.860680 -7.166916 30.987025 27.310537 -4.510889 0.000001 -0.000000 0.000000 -4.837058 11.355375 -75.784337 -0.816395 3.073974 -46.874618 -0.000001 0.000000 -0.000002 1.623364 16.580954 -84.691286 0.018006 0.022041 -72.884860 0.000000 0.000000 -0.000001 -6.436870 23.133393 -89.739813 0.012859 0.975935 -51.002976 0.000001 -0.000001 0.000001 -17.136231 21.948126 -87.159163 0.002636 -0.092790 -58.099085 -0.000000 -0.000003 0.000001 -0.000000 0.000004 -0.000000 9.173257 58.822812 -34.236525 -90.340132 -16.276556 38.187168 0.014067 63.486451 -1.116220 0.463050 -31.231641 -2.191402 9.347171 2.810536 -11.364526 16.169083 -43.265994 15.843568 0.000000 -0.000001 0.000000 17.076774 -0.396559 31.924352 -0.204394 -0.284185 112.811591 0.000003 -0.000000 0.000002 9.205480 -5.035909 102.738114 0.014978 -0.019226 61.018506 -0.000000 -0.000001 0.000003 5.569106 -8.935201 107.329080 0.547985 -0.005788 41.263720 0.000000 -0.000001 0.000002 6.511248 -17.148262 98.228031 0.007423 -0.015751 43.845747 -0.000001 0.000001 0.000004 -0.000002 0.000004 -0.000001 0.000000 -0.000000 -0.000000 0.000000 -0.000000 -0.000000 0.000000 -0.000000 -0.000000 0.000000 -0.000000 -0.000000 0.000000 -0.000000 -0.000000 0.000000 -0.000000 -0.000000 0.000000 -0.000000 -0.000000 0.000000 -0.000000 -0.000000 0.000000 -0.000000 -0.000000 0.000000 -0.000000 -0.000000 -0.000000 -0.000001 -0.000001 -0.000000 -0.000001 -0.000001 -0.000000 -0.000001 -0.000001 
-0.419580 40.002575 23.335997 42.400459 12.181029 12.975965 -0.000003 0.000001 0.000001 -125.953715 17.856228 25.906983 92.920933 -18.921408 -13.831192 -9.812234 -2.673723 15.006267 0.000000 -0.000000 0.000000 0.000000 0.000000 -0.000002 -73.170553 10.084067 -32.678637 119.890966 -51.244963 0.790274 1.274778 2.040005 -14.609390 -0.000001 -0.000001 0.000001 -0.000003 -0.000000 -0.000000 41.993748 -0.952246 4.966219 9.143267 -3.100856 -1.461061 9.134449 -3.080102 -1.288721 8.960289 -0.933432 3.678772 -38.645880 -0.495406 -2.718188 -0.000000 -0.000000 -0.000001 -0.000000 -0.000000 -0.000001 -0.000000 -0.000000 -0.000001 -0.000000 -0.000000 -0.000000 0.000002 -0.000000 -0.000000 -0.000000 -0.000000 -0.000000 0.000002 -0.000000 -0.000000 -0.000000 -0.000000 -0.000001 -0.000000 -0.000000 -0.000001 33.492324 -43.844757 61.154577 -136.609056 58.463298 -13.616550 -0.027450 -69.652391 -32.463565 -16.988103 28.643623 -16.103045 -7.471929 1.860679 -7.166912 30.987028 27.310534 -4.510890 0.000001 0.000002 0.000001 -4.837261 11.355282 -75.784002 -0.816397 3.073977 -46.874612 0.000001 -0.000000 0.000001 1.623366 16.580950 -84.691279 0.018004 0.022039 -72.884860 0.000001 0.000002 0.000001 -6.436876 23.133403 -89.739820 0.012859 0.975936 -51.002969 -0.000000 -0.000001 -0.000002 -17.136362 21.947665 -87.159183 0.002694 -0.090869 -58.099624 0.000001 -0.000003 -0.000001 0.000001 0.000002 0.000000 11.154332 54.062450 -37.260256 -89.929064 -19.594310 40.450132 0.000599 69.627993 -0.235756 -1.559054 -31.634810 -2.406162 9.347171 2.810539 -11.364523 16.169080 -43.265994 15.843570 -0.000001 -0.000001 0.000001 17.076776 -0.396559 31.924355 -0.204389 -0.284184 112.811591 -0.000001 0.000001 0.000000 9.205480 -5.035907 102.738114 0.014982 -0.019227 61.018506 0.000000 0.000002 -0.000001 5.569107 -8.935204 107.329080 0.547984 -0.005787 41.263720 0.000001 -0.000001 0.000003 6.511248 -17.148264 98.228031 0.007425 -0.015751 43.845747 0.000001 0.000000 -0.000005 -0.000001 -0.000000 -0.000003 -0.000000 0.000000 -0.000000 -0.000000 0.000000 -0.000000 -0.000000 0.000000 -0.000000 -0.000000 0.000000 -0.000000 -0.000000 0.000000 -0.000000 -0.000000 0.000000 -0.000000 -0.000000 0.000000 -0.000000 -0.000000 0.000000 -0.000000 -0.000000 0.000000 -0.000000 -0.000000 0.000000 -0.000000 -0.000003 0.000001 0.000001 -0.000003 0.000001 0.000001 -0.000003 0.000001 0.000001 
